<svg id="menu" xmlns="http://www.w3.org/2000/svg" width="22" height="22" viewBox="0 0 22 22">
  <path id="Shape" d="M14.438,22a2.581,2.581,0,0,1-2.578-2.578V14.438a2.581,2.581,0,0,1,2.578-2.578h4.984A2.581,2.581,0,0,1,22,14.438v4.984A2.581,2.581,0,0,1,19.422,22ZM2.579,22A2.581,2.581,0,0,1,0,19.422V14.438a2.581,2.581,0,0,1,2.579-2.578H7.563a2.581,2.581,0,0,1,2.578,2.578v4.984A2.581,2.581,0,0,1,7.563,22ZM14.438,10.14a2.581,2.581,0,0,1-2.578-2.578V2.579A2.581,2.581,0,0,1,14.438,0h4.984A2.581,2.581,0,0,1,22,2.579V7.563a2.581,2.581,0,0,1-2.578,2.578Zm-11.859,0A2.581,2.581,0,0,1,0,7.563V2.579A2.581,2.581,0,0,1,2.579,0H7.563A2.581,2.581,0,0,1,10.14,2.579V7.563A2.581,2.581,0,0,1,7.563,10.14Z" fill="#9b9b9b"/>
</svg>
