<svg id="heart_2_" data-name="heart (2)" xmlns="http://www.w3.org/2000/svg" width="12" height="10" viewBox="0 0 12 10">
  <path id="Path" d="M11.048.979A3.331,3.331,0,0,0,8.648,0,3.151,3.151,0,0,0,6.762.61,3.73,3.73,0,0,0,6,1.355,3.728,3.728,0,0,0,5.238.61,3.151,3.151,0,0,0,3.352,0a3.332,3.332,0,0,0-2.4.979A3.388,3.388,0,0,0,0,3.378,4.044,4.044,0,0,0,1.19,6.116,24.782,24.782,0,0,0,4.169,8.736c.413.33.881.7,1.367,1.1a.741.741,0,0,0,.928,0c.486-.4.954-.772,1.367-1.1A24.77,24.77,0,0,0,10.81,6.116,4.044,4.044,0,0,0,12,3.378,3.387,3.387,0,0,0,11.048.979Z" fill="#d13f3f"/>
</svg>
