<svg id="heart_1_" data-name="heart (1)" xmlns="http://www.w3.org/2000/svg" width="12" height="10" viewBox="0 0 12 10">
  <path id="Shape" d="M5.536,9.837c-.484-.4-.952-.77-1.364-1.1l0,0A24.8,24.8,0,0,1,1.19,6.116,4.046,4.046,0,0,1,0,3.378,3.388,3.388,0,0,1,.952.978,3.331,3.331,0,0,1,3.353,0,3.156,3.156,0,0,1,5.238.609,3.735,3.735,0,0,1,6,1.355,3.735,3.735,0,0,1,6.763.609,3.152,3.152,0,0,1,8.648,0a3.334,3.334,0,0,1,2.4.978A3.388,3.388,0,0,1,12,3.378a4.046,4.046,0,0,1-1.19,2.739A24.784,24.784,0,0,1,7.831,8.735c-.413.329-.881.7-1.367,1.1a.742.742,0,0,1-.928,0Z" fill="#9b9b9b"/>
</svg>
