<svg xmlns="http://www.w3.org/2000/svg" width="20" height="17" viewBox="0 0 20 17">
  <g id="heart_1_" data-name="heart (1)" transform="translate(0.5 0.5)">
    <path id="Shape" d="M8.765,15.739C8,15.1,7.258,14.506,6.605,13.98l0,0a39.354,39.354,0,0,1-4.717-4.19A6.5,6.5,0,0,1,0,5.4,5.45,5.45,0,0,1,1.508,1.566,5.247,5.247,0,0,1,5.308,0,4.957,4.957,0,0,1,8.293.976,5.957,5.957,0,0,1,9.5,2.168,5.935,5.935,0,0,1,10.707.976,4.953,4.953,0,0,1,13.693,0a5.248,5.248,0,0,1,3.8,1.566A5.453,5.453,0,0,1,19,5.4a6.5,6.5,0,0,1-1.885,4.382,39.416,39.416,0,0,1-4.716,4.19c-.654.527-1.4,1.125-2.165,1.762a1.165,1.165,0,0,1-1.47,0Z" fill="#fff" stroke="#fff" stroke-miterlimit="10" stroke-width="1"/>
  </g>
</svg>
