<svg id="home" xmlns="http://www.w3.org/2000/svg" width="26" height="25" viewBox="0 0 26 25">
  <path id="Path" d="M18.764,16H2.236A2.337,2.337,0,0,1,0,13.579V.842A.812.812,0,0,1,.778,0a.812.812,0,0,1,.778.842V13.579a.711.711,0,0,0,.681.737H18.764a.711.711,0,0,0,.681-.737V.842A.78.78,0,1,1,21,.842V13.579A2.337,2.337,0,0,1,18.764,16Z" transform="translate(2 9)" fill="#eeba76"/>
  <path id="Path-2" data-name="Path" d="M25.188,13a.8.8,0,0,1-.574-.246L14.508,2.321a2.088,2.088,0,0,0-3.016,0L1.387,12.754a.794.794,0,0,1-1.149,0,.858.858,0,0,1,0-1.186l10.1-10.433a3.679,3.679,0,0,1,5.314,0l10.1,10.433a.858.858,0,0,1,0,1.186.8.8,0,0,1-.574.246Z" fill="#eeba76"/>
  <path id="Shape" d="M.8,11a.824.824,0,0,1-.8-.846V2.644A2.578,2.578,0,0,1,2.5,0h3A2.578,2.578,0,0,1,8,2.644v7.51A.824.824,0,0,1,7.2,11Z" transform="translate(9 14)" fill="#eeba76"/>
</svg>
