<svg id="twitter" xmlns="http://www.w3.org/2000/svg" width="30" height="30" viewBox="0 0 30 30">
  <circle id="Oval" cx="15" cy="15" r="15" fill="#55acee"/>
  <path id="Path" d="M16.667,1.578a6.907,6.907,0,0,1-1.964.529,3.385,3.385,0,0,0,1.5-1.862,6.911,6.911,0,0,1-2.171.817A3.441,3.441,0,0,0,11.539,0,3.394,3.394,0,0,0,8.119,3.366a3.31,3.31,0,0,0,.089.767A9.758,9.758,0,0,1,1.16.616,3.312,3.312,0,0,0,.7,2.308a3.352,3.352,0,0,0,1.521,2.8A3.436,3.436,0,0,1,.669,4.688c0,.014,0,.029,0,.043a3.382,3.382,0,0,0,2.743,3.3,3.486,3.486,0,0,1-1.544.058,3.417,3.417,0,0,0,3.194,2.338A6.93,6.93,0,0,1,.815,11.868,6.993,6.993,0,0,1,0,11.821a9.784,9.784,0,0,0,5.241,1.512A9.583,9.583,0,0,0,14.97,3.756c0-.146,0-.291-.01-.435a6.875,6.875,0,0,0,1.706-1.742Z" transform="translate(7.501 8.336)" fill="#f1f2f2"/>
</svg>
