<svg id="user_1_" data-name="user (1)" xmlns="http://www.w3.org/2000/svg" width="21" height="24" viewBox="0 0 21 24">
  <path id="Path" d="M16.09,0a7.7,7.7,0,0,1-1.227,1.134A7.908,7.908,0,0,1,19.3,8.074c0,1.6-3.864,2.858-8.8,2.858S1.7,9.677,1.7,8.074a7.908,7.908,0,0,1,4.434-6.94A7.7,7.7,0,0,1,4.91,0,9.383,9.383,0,0,0,0,8.074c0,1.029.62,2.462,3.572,3.45a22.726,22.726,0,0,0,6.928.956,22.726,22.726,0,0,0,6.928-.956C20.38,10.536,21,9.1,21,8.074A9.383,9.383,0,0,0,16.09,0Z" transform="translate(0 11.52)" fill="#9b9b9b"/>
  <path id="Shape" d="M0,6.24A6.261,6.261,0,0,1,6.3,0a6.24,6.24,0,1,1,0,12.48A6.261,6.261,0,0,1,0,6.24Z" transform="translate(4.2)" fill="#9b9b9b"/>
</svg>
