<svg id="whatsapp" xmlns="http://www.w3.org/2000/svg" width="30" height="30" viewBox="0 0 30 30">
  <circle id="Oval" cx="15" cy="15" r="15" fill="#4caf50"/>
  <path id="Path" d="M9.169,0A9.161,9.161,0,0,0,1.745,14.539L.6,17.945l3.523-1.126A9.165,9.165,0,1,0,9.169,0Z" transform="translate(5.833 5.833)" fill="#fff" stroke="#fff" stroke-miterlimit="10" stroke-width="1"/>
  <path id="Path-2" data-name="Path" d="M10.8,8.732a2.619,2.619,0,0,1-1.823,1.291c-.485.1-1.119.183-3.253-.688A11.566,11.566,0,0,1,1.1,5.312,5.182,5.182,0,0,1,0,2.554,2.9,2.9,0,0,1,.95.328,1.362,1.362,0,0,1,1.9,0c.115,0,.218.006.311.01.273.011.41.027.59.452.224.532.77,1.844.835,1.979a.537.537,0,0,1,.039.5,1.581,1.581,0,0,1-.3.42c-.137.155-.267.274-.4.441-.125.145-.267.3-.109.569A8.138,8.138,0,0,0,4.368,6.21,6.852,6.852,0,0,0,6.546,7.533a.594.594,0,0,0,.655-.1,11.083,11.083,0,0,0,.726-.947.523.523,0,0,1,.666-.2c.251.086,1.578.732,1.851.865s.453.2.519.312A2.245,2.245,0,0,1,10.8,8.732Z" transform="translate(9.5 9.958)" fill="#4caf50"/>
</svg>
